<?xml version="1.0" standalone="no"?>
<!DOCTYPE svg PUBLIC "-//W3C//DTD SVG 20010904//EN"
 "http://www.w3.org/TR/2001/REC-SVG-20010904/DTD/svg10.dtd">
<svg version="1.0" xmlns="http://www.w3.org/2000/svg"
 width="3543.000000pt" height="3543.000000pt" viewBox="0 0 3543.000000 3543.000000"
 preserveAspectRatio="xMidYMid meet">

<g transform="translate(0.000000,3543.000000) scale(0.100000,-0.100000)"
fill="#000000" stroke="none">
<path d="M19155 28820 c-94 -24 -157 -50 -235 -95 -870 -505 -2139 -2650
-3770 -6370 -732 -1671 -1596 -3815 -2382 -5915 -61 -162 -115 -297 -119 -300
-5 -3 -79 -14 -166 -23 -313 -35 -1595 -184 -2258 -263 -770 -91 -1400 -166
-1401 -168 -1 0 29 -253 66 -561 38 -308 90 -733 115 -945 25 -212 48 -395 51
-408 4 -20 9 -22 37 -17 18 3 203 26 412 51 209 24 569 67 800 94 231 28 557
66 725 86 168 19 431 50 585 68 154 18 282 31 284 30 2 -2 -37 -121 -88 -265
-51 -143 -91 -262 -89 -264 3 -4 443 -159 1033 -365 171 -60 420 -147 554
-194 135 -47 245 -86 246 -86 3 0 15 34 174 480 242 680 332 925 344 936 11
10 414 57 1502 174 1341 145 2677 282 2684 274 17 -17 -166 -2001 -294 -3197
-129 -1190 -346 -2946 -431 -3476 -8 -52 -13 -95 -11 -97 4 -4 -15 -1 1497
-228 234 -36 426 -63 427 -62 11 11 189 1350 282 2121 62 507 191 1649 191
1684 0 2 6 1 14 -2 25 -10 1335 -942 3220 -2290 609 -436 609 -436 626 -414
17 22 1058 1476 1098 1533 l21 31 -717 513 c-394 283 -916 656 -1159 829 -242
174 -439 319 -437 322 2 3 47 32 101 64 54 32 176 109 271 172 1256 822 2431
1928 3234 3043 149 207 259 373 311 471 177 330 126 609 -147 811 -355 264
-1058 414 -2146 459 -312 13 -1319 7 -1640 -10 -420 -22 -619 -32 -880 -41
-294 -11 -797 -41 -1100 -65 -102 -8 -193 -15 -204 -15 -18 0 -19 6 -12 113
37 646 71 1444 107 2542 17 508 23 2578 10 3130 -40 1683 -137 3041 -307 4310
-58 437 -111 711 -185 962 -97 329 -211 548 -358 693 -144 142 -305 188 -486
140z m-690 -4301 c66 -1030 89 -1999 82 -3454 -5 -1036 -10 -1288 -37 -2055
-32 -911 -98 -2241 -111 -2255 -2 -2 -126 -15 -274 -30 -656 -64 -1925 -196
-2744 -285 -300 -33 -546 -58 -547 -57 -1 1 84 227 190 502 1102 2861 2083
5165 2975 6990 181 370 441 878 447 872 2 -2 11 -105 19 -228z m4944 -9406
c-2 -19 -434 -395 -673 -587 -335 -268 -839 -624 -1085 -766 -256 -148 -1586
-876 -1589 -870 -1 4 20 257 47 561 28 305 67 754 86 999 20 245 40 448 43
451 14 13 1054 114 1487 144 419 29 511 35 715 46 471 25 971 36 969 22z"/>
</g>
</svg>
