<?xml version="1.0" standalone="no"?>
<!DOCTYPE svg PUBLIC "-//W3C//DTD SVG 20010904//EN"
 "http://www.w3.org/TR/2001/REC-SVG-20010904/DTD/svg10.dtd">
<svg version="1.0" xmlns="http://www.w3.org/2000/svg"
 width="886.000000pt" height="886.000000pt" viewBox="0 0 886.000000 886.000000"
 preserveAspectRatio="xMidYMid meet">

<g transform="translate(0.000000,886.000000) scale(0.100000,-0.100000)"
fill="#000000" stroke="none">
<path d="M4745 7188 c-237 -125 -586 -728 -1051 -1822 -129 -302 -321 -782
-446 -1111 l-83 -220 -472 -55 c-260 -31 -475 -58 -478 -62 -7 -7 45 -460 54
-470 3 -4 155 11 336 32 182 22 340 40 351 40 l22 0 -24 -64 -23 -65 42 -15
c173 -64 412 -144 416 -140 3 2 33 82 66 177 l62 172 249 28 c482 53 795 83
799 77 11 -19 -99 -1075 -154 -1480 -16 -113 -28 -206 -27 -207 5 -7 472 -71
477 -65 4 4 12 48 18 97 6 50 20 158 30 240 11 83 32 251 46 374 14 124 27
227 29 229 2 2 219 -150 482 -338 262 -187 480 -337 483 -332 3 5 66 93 139
195 74 103 131 190 129 194 -3 5 -132 98 -286 208 -154 110 -280 202 -280 205
0 3 53 39 117 82 174 113 319 233 492 407 156 156 316 354 365 451 69 137 -14
232 -245 280 -183 39 -423 46 -851 26 -211 -10 -395 -18 -409 -19 -22 -2 -25
2 -24 28 0 17 7 165 14 330 26 588 15 1355 -25 1815 -35 391 -73 593 -129 696
-56 100 -125 127 -211 82z m-119 -1175 c21 -402 -1 -1791 -28 -1819 -4 -3 -42
-10 -85 -14 -517 -55 -794 -82 -798 -78 -7 7 236 624 399 1011 184 437 477
1067 497 1067 4 0 11 -75 15 -167z m1213 -2250 c-22 -26 -218 -184 -305 -245
-43 -31 -177 -110 -296 -176 -213 -117 -218 -120 -218 -93 0 39 39 473 43 477
11 12 512 51 676 53 105 1 112 0 100 -16z"/>
</g>
</svg>
